# xmcd
#
# Track frame offsets:
#	150
#	16582
#	35617
#	57295
#	74440
#	93527
#	115990
#	137660
#	162777
#	183590
#
# Disc length: 2754 seconds
#
# Revision: 1
# Processed by: cddbd v1.5.1PL0 Copyright (c) Steve Scherf et al.
# Submitted via: CDex 1.50Beta5
#
DISCID=840ac00a
DTITLE=Hi-Fi SET - WINTER JUNCTION
DYEAR=1989
DGENRE=Pop
TTITLE0=Hi-Fi SET/今夜だけの恋人
TTITLE1=Hi-Fi SET/ムーン・ハイウェイ
TTITLE2=Hi-Fi SET/モーニング・フライト
TTITLE3=PEARL/プレシャス・ラブ
TTITLE4=PEARL/感じてくれよ
TTITLE5=PEARL/Pinup Baby
TTITLE6=GAVI/うわさのスノー・バニー
TTITLE7=GAVI/恋の4WD
TTITLE8=GAVI/パワフル・ランチ
TTITLE9=GAVI/気をつけて,チェリー・ガール
EXTD=
EXTT0=
EXTT1=
EXTT2=
EXTT3=
EXTT4=
EXTT5=
EXTT6=
EXTT7=
EXTT8=
EXTT9=
PLAYORDER=
